{
  "accessors": [
    {
      "bufferView": 2,
      "componentType": 5126,
      "count": 64,
      "max": [
        -98.794189453125,
        33.202598571777344,
        119.078857421875
      ],
      "min": [
        -194.64013671875,
        6.65411376953125,
        99.383544921875
      ],
      "type": "VEC3"
    },
    {
      "bufferView": 2,
      "byteOffset": 768,
      "componentType": 5126,
      "count": 64,
      "max": [
        0.8452916145324707,
        -0.18040110170841217,
        0.96130383014678955
      ],
      "min": [
        -0.84529614448547363,
        -0.86133193969726562,
        -0.88657629489898682
      ],
      "type": "VEC3"
    },
    {
      "bufferView": 1,
      "componentType": 5126,
      "count": 64,
      "max": [
        0.55195361375808716,
        0.50948250293731689
      ],
      "min": [
        0.51800358295440674,
        0.48903930187225342
      ],
      "type": "VEC2"
    },
    {
      "bufferView": 0,
      "componentType": 5125,
      "count": 120,
      "max": [
        63
      ],
      "min": [
        0
      ],
      "type": "SCALAR"
    },
    {
      "bufferView": 2,
      "byteOffset": 1536,
      "componentType": 5126,
      "count": 2524,
      "max": [
        45.8330078125,
        229.038818359375,
        251.1895751953125
      ],
      "min": [
        -339.267578125,
        -30.514266967773438,
        14.2987060546875
      ],
      "type": "VEC3"
    },
    {
      "bufferView": 2,
      "byteOffset": 31824,
      "componentType": 5126,
      "count": 2524,
      "max": [
        1,
        1,
        1
      ],
      "min": [
        -1,
        -1,
        -1
      ],
      "type": "VEC3"
    },
    {
      "bufferView": 1,
      "byteOffset": 512,
      "componentType": 5126,
      "count": 2524,
      "max": [
        0.60475331544876099,
        1
      ],
      "min": [
        0,
        0.3944404125213623
      ],
      "type": "VEC2"
    },
    {
      "bufferView": 0,
      "byteOffset": 480,
      "componentType": 5125,
      "count": 5478,
      "max": [
        2523
      ],
      "min": [
        0
      ],
      "type": "SCALAR"
    },
    {
      "bufferView": 2,
      "byteOffset": 62112,
      "componentType": 5126,
      "count": 555,
      "max": [
        -47.54345703125,
        151.11886596679688,
        217.10107421875
      ],
      "min": [
        -245.891357421875,
        -8.1676788330078125,
        1.757080078125
      ],
      "type": "VEC3"
    },
    {
      "bufferView": 2,
      "byteOffset": 68772,
      "componentType": 5126,
      "count": 555,
      "max": [
        1,
        1,
        1
      ],
      "min": [
        -1,
        -1,
        -1
      ],
      "type": "VEC3"
    },
    {
      "bufferView": 1,
      "byteOffset": 20704,
      "componentType": 5126,
      "count": 555,
      "max": [
        0.60277938842773438,
        0.77009701728820801
      ],
      "min": [
        0.43498760461807251,
        0.45346319675445557
      ],
      "type": "VEC2"
    },
    {
      "bufferView": 0,
      "byteOffset": 22392,
      "componentType": 5125,
      "count": 1434,
      "max": [
        554
      ],
      "min": [
        0
      ],
      "type": "SCALAR"
    },
    {
      "bufferView": 2,
      "byteOffset": 75432,
      "componentType": 5126,
      "count": 206,
      "max": [
        -79.8349609375,
        73.285118103027344,
        185.25390625
      ],
      "min": [
        -213.599853515625,
        -39.417739868164062,
        6.17822265625
      ],
      "type": "VEC3"
    },
    {
      "bufferView": 2,
      "byteOffset": 77904,
      "componentType": 5126,
      "count": 206,
      "max": [
        0.99949914216995239,
        0.9682496190071106,
        0.99369293451309204
      ],
      "min": [
        -0.99949896335601807,
        -0.97937774658203125,
        -0.99351620674133301
      ],
      "type": "VEC3"
    },
    {
      "bufferView": 1,
      "byteOffset": 25144,
      "componentType": 5126,
      "count": 206,
      "max": [
        0.57310342788696289,
        0.5821535587310791
      ],
      "min": [
        0.4903968870639801,
        0.3918759822845459
      ],
      "type": "VEC2"
    },
    {
      "bufferView": 0,
      "byteOffset": 28128,
      "componentType": 5125,
      "count": 444,
      "max": [
        205
      ],
      "min": [
        0
      ],
      "type": "SCALAR"
    },
    {
      "bufferView": 2,
      "byteOffset": 80376,
      "componentType": 5126,
      "count": 12,
      "max": [
        -126.936767578125,
        223.14881896972656,
        222.0294189453125
      ],
      "min": [
        -166.498046875,
        22.230392456054688,
        164.719970703125
      ],
      "type": "VEC3"
    },
    {
      "bufferView": 2,
      "byteOffset": 80520,
      "componentType": 5126,
      "count": 12,
      "max": [
        2.1826147076353664e-06,
        0.90724039077758789,
        -0.075376458466053009
      ],
      "min": [
        -2.1826149350090418e-06,
        -0.99715518951416016,
        -0.42061278223991394
      ],
      "type": "VEC3"
    },
    {
      "bufferView": 1,
      "byteOffset": 26792,
      "componentType": 5126,
      "count": 12,
      "max": [
        0.59926432371139526,
        0.62999606132507324
      ],
      "min": [
        0.41196990013122559,
        0.57663500308990479
      ],
      "type": "VEC2"
    },
    {
      "bufferView": 0,
      "byteOffset": 29904,
      "componentType": 5125,
      "count": 24,
      "max": [
        11
      ],
      "min": [
        0
      ],
      "type": "SCALAR"
    },
    {
      "bufferView": 2,
      "byteOffset": 80664,
      "componentType": 5126,
      "count": 122,
      "max": [
        215.49462890625,
        -156.63299560546875,
        116.9112548828125
      ],
      "min": [
        120.244384765625,
        -183.91168212890625,
        97.9207763671875
      ],
      "type": "VEC3"
    },
    {
      "bufferView": 2,
      "byteOffset": 82128,
      "componentType": 5126,
      "count": 122,
      "max": [
        0.99985378980636597,
        0.83846563100814819,
        0.95641916990280151
      ],
      "min": [
        -0.99985396862030029,
        -0.95883125066757202,
        -0.99673998355865479
      ],
      "type": "VEC3"
    },
    {
      "bufferView": 1,
      "byteOffset": 26888,
      "componentType": 5126,
      "count": 122,
      "max": [
        0.53929561376571655,
        0.71863353252410889
      ],
      "min": [
        0.5010601282119751,
        0.69592416286468506
      ],
      "type": "VEC2"
    },
    {
      "bufferView": 0,
      "byteOffset": 30000,
      "componentType": 5125,
      "count": 264,
      "max": [
        121
      ],
      "min": [
        0
      ],
      "type": "SCALAR"
    },
    {
      "bufferView": 2,
      "byteOffset": 83592,
      "componentType": 5126,
      "count": 2789,
      "max": [
        339.26806640625,
        30.20361328125,
        281.6190185546875
      ],
      "min": [
        -3.52880859375,
        -220.46731567382812,
        14.421875
      ],
      "type": "VEC3"
    },
    {
      "bufferView": 2,
      "byteOffset": 117060,
      "componentType": 5126,
      "count": 2789,
      "max": [
        1,
        1,
        1
      ],
      "min": [
        -1,
        -1,
        -1
      ],
      "type": "VEC3"
    },
    {
      "bufferView": 1,
      "byteOffset": 27864,
      "componentType": 5126,
      "count": 2789,
      "max": [
        0.69242608547210693,
        1
      ],
      "min": [
        0,
        0.44161772727966309
      ],
      "type": "VEC2"
    },
    {
      "bufferView": 0,
      "byteOffset": 31056,
      "componentType": 5125,
      "count": 6423,
      "max": [
        2788
      ],
      "min": [
        0
      ],
      "type": "SCALAR"
    },
    {
      "bufferView": 2,
      "byteOffset": 150528,
      "componentType": 5126,
      "count": 497,
      "max": [
        264.88818359375,
        -45.564395904541016,
        178.9964599609375
      ],
      "min": [
        70.850830078125,
        -192.31719970703125,
        1.7567138671875
      ],
      "type": "VEC3"
    },
    {
      "bufferView": 2,
      "byteOffset": 156492,
      "componentType": 5126,
      "count": 497,
      "max": [
        1,
        1,
        1
      ],
      "min": [
        -1,
        -1,
        -1
      ],
      "type": "VEC3"
    },
    {
      "bufferView": 1,
      "byteOffset": 50176,
      "componentType": 5126,
      "count": 497,
      "max": [
        0.60277938842773438,
        1
      ],
      "min": [
        0,
        0.48664760589599609
      ],
      "type": "VEC2"
    },
    {
      "bufferView": 0,
      "byteOffset": 56748,
      "componentType": 5125,
      "count": 1356,
      "max": [
        496
      ],
      "min": [
        0
      ],
      "type": "SCALAR"
    },
    {
      "bufferView": 2,
      "byteOffset": 162456,
      "componentType": 5126,
      "count": 290,
      "max": [
        226.11669921875,
        -142.09928894042969,
        94.0911865234375
      ],
      "min": [
        109.622314453125,
        -197.15744018554688,
        12.9300537109375
      ],
      "type": "VEC3"
    },
    {
      "bufferView": 2,
      "byteOffset": 165936,
      "componentType": 5126,
      "count": 290,
      "max": [
        0.99638336896896362,
        0.99649333953857422,
        0.99999469518661499
      ],
      "min": [
        -0.9963834285736084,
        -0.99981516599655151,
        -0.99999028444290161
      ],
      "type": "VEC3"
    },
    {
      "bufferView": 1,
      "byteOffset": 54152,
      "componentType": 5126,
      "count": 290,
      "max": [
        0.55413728952407837,
        0.69075882434844971
      ],
      "min": [
        0.35294869542121887,
        0.59164148569107056
      ],
      "type": "VEC2"
    },
    {
      "bufferView": 0,
      "byteOffset": 62172,
      "componentType": 5125,
      "count": 768,
      "max": [
        289
      ],
      "min": [
        0
      ],
      "type": "SCALAR"
    },
    {
      "bufferView": 2,
      "byteOffset": 169416,
      "componentType": 5126,
      "count": 118,
      "max": [
        190.09423828125,
        21.993362426757812,
        245.5848388671875
      ],
      "min": [
        145.64453125,
        -229.03884887695312,
        114.382568359375
      ],
      "type": "VEC3"
    },
    {
      "bufferView": 2,
      "byteOffset": 170832,
      "componentType": 5126,
      "count": 118,
      "max": [
        0.99178707599639893,
        0.99879539012908936,
        0.99369293451309204
      ],
      "min": [
        -0.99178671836853027,
        -0.98362696170806885,
        -0.88014066219329834
      ],
      "type": "VEC3"
    },
    {
      "bufferView": 1,
      "byteOffset": 56472,
      "componentType": 5126,
      "count": 118,
      "max": [
        0.62048667669296265,
        0.88063609600067139
      ],
      "min": [
        0.48512360453605652,
        0.51559245586395264
      ],
      "type": "VEC2"
    },
    {
      "bufferView": 0,
      "byteOffset": 65244,
      "componentType": 5125,
      "count": 210,
      "max": [
        117
      ],
      "min": [
        0
      ],
      "type": "SCALAR"
    }
  ],
  "asset": {
    "extras": {
      "author": "OGL (https://sketchfab.com/GaryLim)",
      "license": "CC-BY-4.0 (http://creativecommons.org/licenses/by/4.0/)",
      "source": "https://sketchfab.com/3d-models/core-gundam-head-model-3bdd881e37f640bcbd05c0fb3287fd3c",
      "title": "Core Gundam Head Model"
    },
    "generator": "Sketchfab-9.25.1",
    "version": "2.0"
  },
  "bufferViews": [
    {
      "buffer": 0,
      "byteLength": 66084,
      "byteOffset": 0,
      "name": "floatBufferViews",
      "target": 34963
    },
    {
      "buffer": 0,
      "byteLength": 57416,
      "byteOffset": 66084,
      "byteStride": 8,
      "name": "floatBufferViews",
      "target": 34962
    },
    {
      "buffer": 0,
      "byteLength": 172248,
      "byteOffset": 123500,
      "byteStride": 12,
      "name": "floatBufferViews",
      "target": 34962
    }
  ],
  "buffers": [
    {
      "byteLength": 295748,
      "uri": "scene.bin"
    }
  ],
  "materials": [
    {
      "doubleSided": true,
      "emissiveFactor": [
        0.033295667328382857,
        1,
        0
      ],
      "name": "neon",
      "pbrMetallicRoughness": {
        "baseColorFactor": [
          0.027450999999999996,
          0.93529399999999996,
          0.20196100000000022,
          1
        ],
        "metallicFactor": 0.30153783479533586,
        "roughnessFactor": 0.39297588091538738
      }
    },
    {
      "doubleSided": true,
      "emissiveFactor": [
        0,
        0,
        0
      ],
      "name": "white",
      "pbrMetallicRoughness": {
        "baseColorFactor": [
          0.92156899999999997,
          0.92156899999999997,
          0.92156899999999997,
          1
        ],
        "metallicFactor": 0.61949294701478719,
        "roughnessFactor": 0.28283459290007401
      }
    },
    {
      "doubleSided": true,
      "emissiveFactor": [
        0,
        0,
        0
      ],
      "name": "darkgrey",
      "pbrMetallicRoughness": {
        "baseColorFactor": [
          0.098654384697512199,
          0.098654384697512199,
          0.098654384697512199,
          1
        ],
        "metallicFactor": 0.66313384477039816,
        "roughnessFactor": 0.95431175538358648
      }
    },
    {
      "doubleSided": true,
      "emissiveFactor": [
        0,
        0,
        0
      ],
      "name": "material",
      "pbrMetallicRoughness": {
        "baseColorFactor": [
          0.89999999999999991,
          0.2098040000000001,
          0.2098040000000001,
          1
        ],
        "metallicFactor": 0.59455529115443806,
        "roughnessFactor": 0.35141314651603411
      }
    },
    {
      "doubleSided": true,
      "emissiveFactor": [
        0.020289255778041238,
        1,
        0.11740654032675374
      ],
      "name": "eyes",
      "pbrMetallicRoughness": {
        "baseColorFactor": [
          0,
          0.93529399999999996,
          0.42941199999999979,
          1
        ],
        "metallicFactor": 1,
        "roughnessFactor": 0.72547798442127098
      }
    }
  ],
  "meshes": [
    {
      "name": "CoreI_neon_0",
      "primitives": [
        {
          "attributes": {
            "NORMAL": 1,
            "POSITION": 0,
            "TEXCOORD_0": 2
          },
          "indices": 3,
          "material": 0,
          "mode": 4
        }
      ]
    },
    {
      "name": "CoreI_white_0",
      "primitives": [
        {
          "attributes": {
            "NORMAL": 5,
            "POSITION": 4,
            "TEXCOORD_0": 6
          },
          "indices": 7,
          "material": 1,
          "mode": 4
        }
      ]
    },
    {
      "name": "CoreI_darkgrey_0",
      "primitives": [
        {
          "attributes": {
            "NORMAL": 9,
            "POSITION": 8,
            "TEXCOORD_0": 10
          },
          "indices": 11,
          "material": 2,
          "mode": 4
        }
      ]
    },
    {
      "name": "CoreI_red_0",
      "primitives": [
        {
          "attributes": {
            "NORMAL": 13,
            "POSITION": 12,
            "TEXCOORD_0": 14
          },
          "indices": 15,
          "material": 3,
          "mode": 4
        }
      ]
    },
    {
      "name": "CoreI_eyes_0",
      "primitives": [
        {
          "attributes": {
            "NORMAL": 17,
            "POSITION": 16,
            "TEXCOORD_0": 18
          },
          "indices": 19,
          "material": 4,
          "mode": 4
        }
      ]
    },
    {
      "name": "CoreII_neon_0",
      "primitives": [
        {
          "attributes": {
            "NORMAL": 21,
            "POSITION": 20,
            "TEXCOORD_0": 22
          },
          "indices": 23,
          "material": 0,
          "mode": 4
        }
      ]
    },
    {
      "name": "CoreII_white_0",
      "primitives": [
        {
          "attributes": {
            "NORMAL": 25,
            "POSITION": 24,
            "TEXCOORD_0": 26
          },
          "indices": 27,
          "material": 1,
          "mode": 4
        }
      ]
    },
    {
      "name": "CoreII_darkgrey_0",
      "primitives": [
        {
          "attributes": {
            "NORMAL": 29,
            "POSITION": 28,
            "TEXCOORD_0": 30
          },
          "indices": 31,
          "material": 2,
          "mode": 4
        }
      ]
    },
    {
      "name": "CoreII_red_0",
      "primitives": [
        {
          "attributes": {
            "NORMAL": 33,
            "POSITION": 32,
            "TEXCOORD_0": 34
          },
          "indices": 35,
          "material": 3,
          "mode": 4
        }
      ]
    },
    {
      "name": "CoreII_eyes_0",
      "primitives": [
        {
          "attributes": {
            "NORMAL": 37,
            "POSITION": 36,
            "TEXCOORD_0": 38
          },
          "indices": 39,
          "material": 4,
          "mode": 4
        }
      ]
    }
  ],
  "nodes": [
    {
      "children": [
        1
      ],
      "name": "RootNode (gltf orientation matrix)",
      "rotation": [
        -0.70710678118654746,
        -0,
        -0,
        0.70710678118654757
      ]
    },
    {
      "children": [
        2
      ],
      "name": "RootNode (model correction matrix)"
    },
    {
      "children": [
        3
      ],
      "matrix": [
        1,
        0,
        0,
        0,
        0,
        0,
        1,
        0,
        0,
        -1,
        0,
        0,
        0,
        0,
        0,
        1
      ],
      "name": "2b1a49f0fb55424886809c5df815c06a.fbx"
    },
    {
      "children": [
        4,
        10
      ],
      "name": "RootNode"
    },
    {
      "children": [
        5,
        6,
        7,
        8,
        9
      ],
      "matrix": [
        1,
        0,
        0,
        0,
        0,
        2.2204460492503131e-16,
        -1,
        0,
        0,
        1,
        2.2204460492503131e-16,
        0,
        0,
        0,
        0,
        1
      ],
      "name": "CoreI"
    },
    {
      "mesh": 0,
      "name": "CoreI_neon_0"
    },
    {
      "mesh": 1,
      "name": "CoreI_white_0"
    },
    {
      "mesh": 2,
      "name": "CoreI_darkgrey_0"
    },
    {
      "mesh": 3,
      "name": "CoreI_red_0"
    },
    {
      "mesh": 4,
      "name": "CoreI_eyes_0"
    },
    {
      "children": [
        11,
        12,
        13,
        14,
        15
      ],
      "matrix": [
        1,
        0,
        0,
        0,
        0,
        2.2204460492503131e-16,
        -1,
        0,
        0,
        1,
        2.2204460492503131e-16,
        0,
        0,
        0,
        0,
        1
      ],
      "name": "CoreII"
    },
    {
      "mesh": 5,
      "name": "CoreII_neon_0"
    },
    {
      "mesh": 6,
      "name": "CoreII_white_0"
    },
    {
      "mesh": 7,
      "name": "CoreII_darkgrey_0"
    },
    {
      "mesh": 8,
      "name": "CoreII_red_0"
    },
    {
      "mesh": 9,
      "name": "CoreII_eyes_0"
    }
  ],
  "scene": 0,
  "scenes": [
    {
      "name": "OSG_Scene",
      "nodes": [
        0
      ]
    }
  ]
}

